<svg xmlns="http://www.w3.org/2000/svg" viewBox="0 0 477.33 488.15"><title>calendar@1X</title><g id="Capa_2" data-name="Capa 2"><g id="Capa_2-2" data-name="Capa 2"><rect x="74.14" width="63.32" height="129.95" rx="23.74" ry="23.74"/><rect x="339.04" width="63.32" height="129.95" rx="23.74" ry="23.74"/><rect x="165.8" y="54.14" width="144.89" height="34.02"/><path d="M430.87,54.14h-.16v34h.16a12.46,12.46,0,0,1,12.44,12.45V441.69a12.46,12.46,0,0,1-12.44,12.45H46.46A12.46,12.46,0,0,1,34,441.69V100.61A12.45,12.45,0,0,1,45.79,88.19v-34A46.45,46.45,0,0,0,0,100.61V441.69a46.46,46.46,0,0,0,46.46,46.46H430.87a46.46,46.46,0,0,0,46.46-46.46V100.61A46.46,46.46,0,0,0,430.87,54.14Z"/><rect x="71.66" y="367.05" width="334" height="47.23" rx="22.21" ry="22.21"/><rect x="74.14" y="287.41" width="334" height="47.23" rx="22.21" ry="22.21"/><rect x="74.14" y="207.78" width="334" height="47.23" rx="22.21" ry="22.21"/></g></g></svg>