<svg xmlns="http://www.w3.org/2000/svg" viewBox="0 0 277.29 396.22"><title>location@1X</title><g id="Capa_2" data-name="Capa 2"><g id="Capa_2-2" data-name="Capa 2"><path d="M159.73,1.6A139.56,139.56,0,0,0,138.65,0C62.2,0,0,62.2,0,138.65c0,1.25,0,2.49.05,3.73,0,.34,0,.67,0,1,0,.9.06,1.8.11,2.69,0,.42,0,.84.08,1.26,0,.81.1,1.62.17,2.43,0,.44.08.88.11,1.32.07.79.15,1.57.23,2.35l.15,1.32c.09.78.19,1.56.29,2.33l.18,1.29c.11.78.23,1.57.36,2.35.06.41.13.82.2,1.22.14.81.28,1.62.43,2.42.07.37.14.75.22,1.12.16.84.34,1.68.52,2.52l.21,1c.2.9.42,1.79.63,2.68.07.26.13.53.2.79.24,1,.5,2,.77,2.93,0,.17.09.34.14.51q.48,1.71,1,3.39h0a136.63,136.63,0,0,0,6.49,17h0c.5,1.09,1,2.17,1.54,3.24h0c.54,1.1,1.1,2.2,1.67,3.29l.11.21c.45.85.88,1.72,1.37,2.55l.4.71q.87,1.53,1.77,3.06l.08.13a138.5,138.5,0,0,0,10.6,15.31l-10.6-15.31c26.54,41.91,119.13,186.71,119.13,186.71l119.1-186.67h0c3.85-4.84-3.19,5.33,0,0,0-.08.09-.16.14-.24.58-1,1.15-2,1.7-2.95.2-.34.39-.69.58-1,.42-.73.8-1.47,1.19-2.22l.17-.31c.55-1.06,1.1-2.13,1.62-3.2s1.06-2.19,1.57-3.3a137.27,137.27,0,0,0,6.47-17,1.87,1.87,0,0,0,.07-.22c.32-1.06.63-2.11.93-3.18l.18-.67c.26-.92.5-1.84.73-2.76.08-.31.16-.62.23-.94.21-.84.41-1.68.6-2.53l.24-1.11c.17-.79.34-1.59.49-2.38.09-.42.17-.83.24-1.25.15-.76.28-1.52.41-2.28.08-.45.15-.9.23-1.35l.33-2.21c.07-.48.14-1,.2-1.42.1-.73.18-1.45.27-2.18.06-.49.12-1,.17-1.47l.21-2.17c0-.5.09-1,.13-1.49.06-.74.1-1.48.15-2.21,0-.49.07-1,.09-1.48.05-.78.07-1.57.1-2.36,0-.45,0-.89.05-1.33,0-1.09,0-2.18.05-3.27v-.43C277.29,69.36,226.21,11.79,159.73,1.6ZM138.65,45.35a93.24,93.24,0,0,1,93.29,93.3v0c0,1.2,0,2.4-.08,3.59l0,.68c-.05,1.16-.12,2.31-.22,3.45l-.06.71c-.11,1.17-.23,2.34-.38,3.49a2.89,2.89,0,0,1,0,.29c-.14,1.11-.31,2.22-.5,3.32l-.09.58c-.2,1.12-.42,2.23-.65,3.34l-.15.68c-.25,1.12-.51,2.23-.79,3.33,0,.13-.07.26-.11.38q-.42,1.61-.9,3.18l-.12.43c-.34,1.08-.7,2.16-1.07,3.22-.07.21-.14.42-.22.63-.38,1.06-.77,2.11-1.19,3.15a8.68,8.68,0,0,0-.44,1.24,4.53,4.53,0,0,1-.81,1.88,2.53,2.53,0,0,0-.33.63q-.7,1.56-1.47,3.09l-.27.54c-.5,1-1,2-1.56,3-.08.16-.17.3-.25.45-.57,1-1.14,2-1.74,3l0,.07c-.57,1-1.19,1.91-1.81,2.84l-.32.49c-.62.93-1.26,1.84-1.91,2.75l-.32.44c-.68.93-1.37,1.86-2.09,2.76h0a93.29,93.29,0,0,1-148.78-2.8l-.28-.39c-.67-.92-1.31-1.85-1.94-2.8l-.26-.39c-1.31-2-2.53-4-3.68-6.07a3.72,3.72,0,0,1-.19-.34c-.55-1-1.08-2-1.59-3L55,180c-.55-1.12-1.09-2.24-1.6-3.38a.86.86,0,0,0-.13-.2,3.22,3.22,0,0,1-.91-1.85,4.42,4.42,0,0,0-.42-1.42c-.43-1.06-.83-2.14-1.21-3.22-.07-.18-.13-.37-.2-.55-.38-1.09-.74-2.18-1.08-3.29a3.37,3.37,0,0,1-.1-.34c-.34-1.1-.65-2.2-.94-3.31,0-.1,0-.19-.08-.28-.29-1.12-.56-2.26-.81-3.4,0-.2-.09-.4-.13-.61-.28-1.29-.53-2.6-.75-3.92a9.68,9.68,0,0,0-.27-1.06,7,7,0,0,1-.23-2.14,2.71,2.71,0,0,0,0-.41c-.15-1.18-.28-2.37-.38-3.57l-.06-.63c-.1-1.16-.17-2.33-.22-3.51l0-.6c0-1.22-.08-2.46-.08-3.69A93.3,93.3,0,0,1,138.65,45.35Z"/></g></g></svg>