<svg xmlns="http://www.w3.org/2000/svg" viewBox="0 0 138.31 170.08"><defs><style>.cls-1{fill:#cc5443;}</style></defs><title>Recurso 1@1X</title><g id="Capa_2" data-name="Capa 2"><g id="Capa_12" data-name="Capa 12"><path class="cls-1" d="M138.31,100.92A69.16,69.16,0,1,1,17.66,54.82c.43-.49.87-1,1.31-1.43a5.57,5.57,0,0,1,9,4.42,5.46,5.46,0,0,1-.86,3c-.46.48-.92,1-1.36,1.48a58.21,58.21,0,1,0,86.86,0c-.4-.46-.82-.91-1.24-1.36a5.57,5.57,0,0,1,1.28-7.45,5.58,5.58,0,0,1,6.68-.06c.5.52,1,1.05,1.45,1.58A68.84,68.84,0,0,1,138.31,100.92Z"/><path class="cls-1" d="M74.1,79.78V43a21.84,21.84,0,1,0-11,0v36.8a21.83,21.83,0,1,0,11,0ZM60.4,21.84a8.2,8.2,0,1,1,2.72,6.09A8.2,8.2,0,0,1,60.4,21.84Zm13.37,85.45a8.18,8.18,0,1,1,3-6.37A8.14,8.14,0,0,1,73.77,107.29Z"/></g></g></svg>